<?xml version="1.0" encoding="UTF-8" standalone="no"?>
<svg
   viewBox="0 0 215.4 146.1"
   enable-background="new 0 0 215.4 146.1"
   version="1.1"
   id="svg52"
   sodipodi:docname="ensembles_de_nombres.svg"
   inkscape:version="1.1.1 (3bf5ae0d25, 2021-09-20)"
   xmlns:inkscape="http://www.inkscape.org/namespaces/inkscape"
   xmlns:sodipodi="http://sodipodi.sourceforge.net/DTD/sodipodi-0.dtd"
   xmlns="http://www.w3.org/2000/svg"
   xmlns:svg="http://www.w3.org/2000/svg">
  <defs
     id="defs56" />
  <sodipodi:namedview
     id="namedview54"
     pagecolor="#ffffff"
     bordercolor="#666666"
     borderopacity="1.0"
     inkscape:pageshadow="2"
     inkscape:pageopacity="0.0"
     inkscape:pagecheckerboard="0"
     showgrid="false"
     inkscape:snap-to-guides="true"
     inkscape:snap-grids="true"
     inkscape:zoom="2.7460539"
     inkscape:cx="27.858156"
     inkscape:cy="104.69569"
     inkscape:window-width="1920"
     inkscape:window-height="1006"
     inkscape:window-x="1920"
     inkscape:window-y="0"
     inkscape:window-maximized="1"
     inkscape:current-layer="svg52" />
  <style
     type="text/css"
     id="style2">.st0{fill:#00B44B;} .st1{fill:#FE8F00;} .st2{fill:#00A7B3;} .st3{fill:#D40042;} .st4{fill:#0061B7;}</style>
  <path
     d="M42.1 107.3c-13.9 0-25.2-9.7-25.2-21.5 0-11.9 11.3-21.5 25.2-21.5 1.9 0 3.7.2 5.6.5l-.1.7c-1.8-.3-3.6-.5-5.4-.5-13.5 0-24.4 9.3-24.4 20.8s11 20.8 24.4 20.8 24.4-9.3 24.4-20.8c0-6.6-3.7-12.9-10-16.8l.4-.6c6.5 4 10.4 10.6 10.4 17.4-.2 11.8-11.4 21.5-25.3 21.5z"
     class="st0"
     id="path4" />
  <path
     d="M53.8 117.2c-11.1 0-20.9-2.5-28.4-7.2-8.3-5.2-13.1-12.9-13.7-21.7-.5-8.9 3.3-17.3 10.9-23.9 7.8-6.8 19.2-11 32.1-11.7 9.1-.5 18.1.5 26 3.1l-.2.7c-7.8-2.6-16.7-3.6-25.7-3.1-12.7.9-23.9 5-31.6 11.6-7.4 6.4-11.2 14.7-10.7 23.3.5 8.5 5.2 16 13.3 21.1 8.4 5.3 19.8 7.7 32.7 6.9 26.8-1.6 47.7-17 46.7-34.3-.5-8.4-6.1-16.1-15.8-21.4l.4-.7c9.9 5.5 15.6 13.3 16.2 22.1 1.1 17.7-20.2 33.5-47.4 35.1-1.6 0-3.2.1-4.8.1z"
     class="st1"
     id="path6" />
  <path
     d="M68.5 128.3c-31.9 0-58.2-16.4-60.6-39.3-1.3-12.3 4.3-24.5 15.8-34.6 11.5-10 27.5-16.5 45.1-18.4 16.7-1.8 33.1.8 46.2 7.5l-.3.7c-13-6.5-29.2-9.2-45.8-7.4-17.5 1.8-33.3 8.3-44.7 18.2C12.9 64.8 7.3 76.9 8.6 88.9c2.7 24.9 34.1 42 70 38.1 35.9-3.9 62.9-27.3 60.3-52.1-1-9.5-6.3-18.2-15.2-25l.5-.6c9.1 7 14.4 15.8 15.5 25.6 2.7 25.3-24.6 49-60.9 53-3.6.2-7 .4-10.3.4z"
     class="st2"
     id="path8" />
  <path
     d="M80.1 136.4c-15.9 0-30.9-3-43.6-8.9-18.1-8.3-29.4-21.4-31.8-36.8C2.3 75.3 9 59.4 23.8 46c14.7-13.4 35.5-22.8 58.6-26.4 25.2-3.9 50.2-.4 68.7 9.7l-.4.7c-18.3-10-43.2-13.5-68.2-9.6-23 3.6-43.7 12.9-58.2 26.2C9.7 59.8 3 75.4 5.4 90.6s13.5 28 31.4 36.2c17.9 8.2 40.4 10.8 63.4 7.2 23-3.6 43.7-12.9 58.2-26.2 14.5-13.3 21.2-28.9 18.9-44-1.6-10.6-7.7-20.2-17.5-27.9l.5-.6c10 7.8 16.1 17.6 17.8 28.4 2.4 15.4-4.4 31.3-19.1 44.7-14.7 13.4-35.5 22.8-58.6 26.4-6.9 1-13.7 1.6-20.3 1.6z"
     class="st3"
     id="path10" />
  <path
     d="M54.5 72.2l-4.1-5.5v4.1c0 .7.2.8 1 1v.3h-2.6v-.3c.8-.2 1-.3 1-1v-4.2c0-.7-.2-.8-1-1v-.3h2.3l3.2 4.3v-3c0-.7-.2-.8-1-1v-.3H56v.3c-.8.2-1 .3-1 1v5.7h-.5zm0-1.9L51 65.7h-.7l4.2 5.7v-1.1zm-10 7.8v5.4h-.7v-4.6l-1.1.8-.3-.5 1.5-1h.6zm-10 14.3c.2.1.4.3.5.5s.2.5.2.7c0 .3-.1.6-.2.9-.1.3-.3.6-.6 1s-.7.9-1.3 1.5h2.2l-.1.6h-2.9V97c.6-.7 1.1-1.3 1.4-1.6.3-.4.5-.7.6-.9.1-.3.2-.5.2-.8 0-.3-.1-.5-.2-.7-.1-.2-.3-.2-.6-.2-.2 0-.4 0-.5.1s-.3.2-.5.4l-.5-.3c.4-.5.9-.8 1.5-.8.3 0 .5 0 .8.2zm-5.3-10.3c.3.5.4 1.2.4 2.1 0 .9-.1 1.6-.4 2.1s-.6.7-1.2.7c-.5 0-1-.2-1.2-.7s-.4-1.2-.4-2.1c0-1.8.5-2.8 1.6-2.8.6 0 1 .2 1.2.7zm-1.9.4c-.1.3-.2.9-.2 1.7 0 .8.1 1.4.2 1.7.1.3.4.5.7.5.3 0 .5-.2.7-.5.1-.3.2-.9.2-1.7s-.1-1.4-.2-1.7-.4-.5-.7-.5c-.3 0-.5.1-.7.5zm27.6.5c.2.1.4.3.5.5.1.2.2.4.2.7 0 .3-.1.6-.3.8-.2.2-.4.4-.8.4.4 0 .6.2.8.4s.3.5.3.9c0 .3-.1.6-.2.8-.1.2-.3.4-.6.6-.3.1-.5.2-.9.2-.3 0-.6-.1-.8-.2-.2-.1-.5-.3-.7-.5l.4-.4c.2.2.3.3.5.4.2.1.3.1.5.1.3 0 .5-.1.7-.3s.5-.4.5-.7c0-.4-.1-.6-.3-.8s-.4-.2-.7-.2h-.3l.1-.5h.2c.3 0 .5-.1.7-.2.2-.2.3-.4.3-.7 0-.3-.1-.5-.2-.6-.1-.1-.3-.2-.6-.2-.2 0-.4 0-.5.1-.2.1-.3.2-.5.4l-.4-.4c.4-.4.9-.6 1.4-.6.2-.2.5-.1.7 0zm4.3.5h-1.9v1.6c.3-.1.5-.2.8-.2.4 0 .7.1 1 .4.3.3.4.7.4 1.2 0 .4-.1.7-.2 1-.1.3-.3.5-.6.6s-.6.2-.9.2c-.3 0-.6-.1-.8-.2-.2-.1-.5-.3-.7-.5l.4-.4c.2.2.3.3.5.4.2.1.3.1.6.1s.5-.1.7-.3c.2-.2.3-.5.3-.9 0-.8-.3-1.1-.9-1.1-.1 0-.2 0-.4.1-.1 0-.2.1-.4.2h-.5V83h2.7l-.1.5z"
     class="st0"
     id="path14" />
  <path
     d="M120.4 95.2c.3.5.4 1.2.4 2.1 0 .9-.1 1.6-.4 2.1s-.7.7-1.2.7-1-.2-1.2-.7c-.3-.5-.4-1.2-.4-2.1 0-1.8.5-2.8 1.6-2.8.5 0 .9.2 1.2.7zm-2 .4c-.1.3-.2.9-.2 1.7 0 .8.1 1.4.2 1.7.1.3.4.5.7.5.3 0 .5-.2.7-.5s.2-.9.2-1.7-.1-1.4-.2-1.7c-.1-.3-.4-.5-.7-.5s-.5.1-.7.5zm4 3.6c.1.1.1.2.1.4 0 .1 0 .2 0 .2 0 .1-.1.2-.1.3l-.4 1.1h-.4l.3-1.3c-.2-.1-.2-.2-.2-.4 0-.1 0-.3.1-.4.1-.1.2-.1.4-.1 0 0 .1.1.2.2zm3.5-4.6v.5l-1.8 4.9-.6-.2 1.8-4.6h-2.1v-.6h2.7z"
     class="st2"
     id="path16" />
  <path
     d="M35.2 71.5v.5l-1.8 4.9-.6-.2 1.8-4.6h-2.1v-.6h2.7zm14.4 26.1c.2.2.3.5.3.8 0 .3-.1.6-.2.8s-.3.4-.6.5c-.3.1-.6.2-.9.2-.3 0-.6-.1-.9-.2-.3-.1-.4-.3-.6-.5-.1-.2-.2-.5-.2-.8 0-.7.3-1.1 1-1.4-.3-.2-.5-.3-.6-.5s-.2-.4-.2-.7c0-.3.1-.5.2-.7s.3-.4.5-.5c.2-.1.5-.2.7-.2.4 0 .8.1 1.1.4s.4.6.4 1c0 .3-.1.5-.2.7s-.4.4-.7.5c.4.1.7.3.9.6zm-.8 1.5c.2-.2.3-.4.3-.7 0-.3-.1-.5-.2-.7-.1-.2-.4-.3-.8-.5l-.2-.1c-.3.1-.4.3-.6.5-.1.2-.2.4-.2.7 0 .3.1.6.3.7.2.2.4.2.7.2s.6.1.7-.1zm-1.2-4c-.1.1-.2.4-.2.6 0 .2.1.4.2.6.1.1.3.3.6.4l.2.1c.2-.1.4-.3.5-.5.1-.2.1-.3.1-.6s-.1-.5-.2-.6c-.1-.1-.3-.2-.6-.2s-.5.1-.6.2z"
     class="st0"
     id="path18" />
  <path
     d="M82.7 61.5v-.3l3.9-6.2h-1.3c-1.1 0-1.9 1.6-1.9 1.7l-.4-.2.5-2h4.9v.3l-4 6.1H86c1.1 0 1.9-1.6 1.9-1.7l.4.2-.5 2h-5.1zm5-6.5h-.6l-3.8 6h.5l3.9-6zm-3.9 0c0 .1-.1.2-.1.4.1-.1.2-.2.4-.4h-.3zm3.6 6c0-.1.1-.2.1-.4-.1.1-.2.2-.4.4h.3z"
     class="st1"
     id="path20" />
  <path
     d="m 122.8,50.9 c -0.4,0.3 -0.9,0.6 -1.9,0.6 -0.8,0 -1.7,-0.2 -2.5,-1.6 -1.5,-0.5 -2.2,-2 -2.2,-3.5 0,-1.8 1,-3.6 3.1,-3.6 2.1,0 3.1,1.8 3.1,3.6 0,1.4 -0.6,2.9 -1.9,3.4 0.4,0.8 0.8,0.8 1.1,0.8 0.2,0 0.5,-0.1 0.9,-0.2 z m -5.4,-4.5 c 0,-0.6 0.1,-1.9 0.6,-2.8 -0.8,0.6 -1.2,1.6 -1.2,2.8 0,1.1 0.4,2.1 1.2,2.7 -0.5,-0.8 -0.6,-2.1 -0.6,-2.7 z m 3.5,0 c 0,-0.8 -0.1,-3.2 -1.5,-3.2 -1.6,0 -1.6,2.4 -1.6,3.2 0,0.8 0.1,3.2 1.6,3.2 1.5,0 1.5,-2.4 1.5,-3.2 z m -0.8,3.5 c -0.2,0.1 -0.4,0.2 -0.7,0.2 -0.1,0 -0.2,0 -0.3,0 0.5,0.7 1.1,1 1.9,1 0.1,0 0.1,0 0.2,0 -0.4,-0.2 -0.7,-0.4 -1.1,-1.2 z m 1.3,-3.5 c 0,0.6 -0.1,1.9 -0.6,2.7 0.9,-0.6 1.3,-1.7 1.3,-2.7 0,-1.2 -0.5,-2.3 -1.4,-2.9 0.5,1 0.7,2.3 0.7,2.9 z"
     class="st3"
     id="path24"
     style="fill:#00a7b3;fill-opacity:1" />
  <path
     d="m 157.1,36.1 -1.7,-2.8 h -0.2 v 1.6 c 0,0.6 0.2,0.7 0.9,0.9 v 0.3 h -3 v -0.3 c 0.7,-0.2 0.9,-0.2 0.9,-0.9 v -3.7 c 0,-0.6 -0.2,-0.7 -0.9,-0.9 V 30 h 2.6 c 1.1,0 2.6,0.2 2.6,1.6 0,1.2 -0.9,1.5 -1.6,1.6 l 1,1.6 c 0.3,0.6 0.4,0.7 1.1,0.9 V 36 h -1.7 z m -2,-0.4 c -0.1,-0.2 -0.2,-0.4 -0.2,-0.8 v -3.7 c 0,-0.5 0,-0.6 0.1,-0.8 h -0.7 c 0.1,0.2 0.2,0.4 0.2,0.8 v 3.7 c 0,0.3 -0.1,0.6 -0.2,0.8 z m 0.5,-2.8 c 0.6,0 1.5,0 1.5,-1.2 0,-1.2 -0.7,-1.2 -1.1,-1.2 h -0.3 c -0.4,0 -0.4,0.1 -0.4,0.4 V 33 h 0.3 z m 2.2,2.8 c -0.2,-0.2 -0.3,-0.4 -0.4,-0.6 l -1.1,-1.8 c -0.2,0 -0.3,0 -0.4,0 l 1.4,2.4 z m -0.3,-4 c 0,0.4 -0.1,0.7 -0.2,1 0.5,-0.2 0.7,-0.5 0.7,-1 0,-0.6 -0.3,-0.9 -0.7,-1 0.1,0.2 0.2,0.5 0.2,1 z"
     class="st4"
     id="path26"
     style="fill:#d40042;fill-opacity:1" />
  <path
     d="M74.4 69.5v-.4h4.7v.4h-4.7zm7.4-2.8v5.4H81v-4.6l-1.1.8-.3-.5 1.5-1h.7zm1.5 15.6V82H88v.4h-4.7zm8.6.7v.6h-.6v1.3h-.7v-1.3h-2.1V83l1.4-3.6.6.2-1.2 3.4h1.4l.1-1.5h.6V83h.5zm3.2-2.9h-1.9v1.6c.3-.1.5-.2.8-.2.4 0 .7.1 1 .4.3.3.4.7.4 1.2 0 .4-.1.7-.2 1-.1.3-.3.5-.6.6s-.6.3-.9.3c-.3 0-.6-.1-.8-.2-.2-.1-.5-.3-.7-.5l.4-.4c.2.2.3.3.5.4.2.1.3.1.6.1s.5-.1.7-.3c.2-.2.3-.5.3-.9 0-.8-.3-1.1-.9-1.1-.1 0-.2 0-.4.1-.1 0-.2.1-.4.2h-.5v-2.7h2.7l-.1.4zM68.6 97.4V97h4.7v.4h-4.7zm7.3-2.8v5.4h-.7v-4.6l-1.1.8-.3-.5 1.5-1h.6zm4.5 3.4v.6h-.6v1.3h-.7v-1.3H77v-.5l1.4-3.6.6.2-1.3 3.3h1.4l.1-1.5h.6V98h.6z"
     class="st1"
     id="path28" />
  <path
     d="M102.1 55.7V61h-.7v-4.6l-1.2.8-.3-.5 1.7-1h.5zm4.4.6c.3.5.5 1.2.5 2.1s-.2 1.6-.5 2.1-.7.7-1.3.7c-.6 0-1-.2-1.3-.7-.3-.5-.5-1.2-.5-2.1s.2-1.6.5-2.1.7-.7 1.3-.7c.6 0 1 .2 1.3.7zm-2.1.4c-.2.3-.3.9-.3 1.7s.1 1.3.3 1.7c.2.3.4.5.8.5.3 0 .6-.2.8-.5.2-.3.3-.9.3-1.7 0-.8-.1-1.3-.3-1.7-.2-.3-.4-.5-.8-.5-.3 0-.6.1-.8.5zm6.6-.4c.3.5.5 1.2.5 2.1s-.2 1.6-.5 2.1-.7.7-1.3.7-1-.2-1.3-.7c-.3-.5-.5-1.2-.5-2.1s.2-1.6.5-2.1.7-.7 1.3-.7 1 .2 1.3.7zm-2.1.4c-.2.3-.3.9-.3 1.7s.1 1.3.3 1.7c.2.3.4.5.8.5.3 0 .6-.2.8-.5.2-.3.3-.9.3-1.7 0-.8-.1-1.3-.3-1.7-.2-.3-.4-.5-.8-.5s-.6.1-.8.5zm-1.9-9.6c.3.4.4.9.4 1.5 0 .7-.1 1.3-.3 1.8s-.5.8-.9 1.1-1 .5-1.6.7l-.2-.6c.7-.2 1.3-.5 1.6-.8.4-.3.6-.8.6-1.4-.1.2-.3.3-.5.5-.2.1-.4.2-.7.2-.3 0-.5-.1-.8-.2-.2-.1-.4-.3-.5-.6-.1-.3-.2-.6-.2-.9 0-.4.1-.7.2-.9s.4-.5.6-.6c.3-.1.5-.2.9-.2.6-.2 1.1 0 1.4.4zm-.3 1.7c0-.6-.1-1-.2-1.3s-.4-.4-.7-.4c-.3 0-.6.1-.7.3-.2.2-.3.5-.3.9s.1.7.2.8c.2.2.4.3.6.3.4.1.8-.2 1.1-.6z"
     class="st2"
     id="path30" />
  <path
     id="XMLID_113_"
     d="M99.5 53.4h12.4v.5H99.5z"
     class="st2" />
  <path
     d="M126.1 66.7c.2.1.4.3.6.5.1.2.2.5.2.7 0 .3-.1.6-.2.9-.1.3-.4.6-.7 1s-.8.8-1.4 1.4h2.4l-.1.6h-3.2v-.6c.7-.7 1.2-1.3 1.5-1.6.3-.3.5-.6.6-.9.1-.3.2-.5.2-.8 0-.3-.1-.5-.2-.7s-.4-.2-.6-.2c-.2 0-.4 0-.6.1s-.3.2-.5.4l-.5-.4c.2-.3.5-.5.7-.6s.6-.2.9-.2c.4.2.7.3.9.4zm.2-9.7v5.4h-.7v-4.6l-1.2.8-.4-.6 1.7-1h.6z"
     class="st2"
     id="path33" />
  <path
     id="XMLID_4_"
     d="M121.6 64h7.7v.5h-7.7z"
     class="st2" />
  <path
     d="m 95.072456,48.997121 c 0.2,0.1 0.4,0.3 0.5,0.5 0.1,0.2 0.2,0.4 0.2,0.7 0,0.3 -0.1,0.6 -0.3,0.8 -0.2,0.2 -0.4,0.4 -0.8,0.4 0.4,0 0.6,0.2 0.9,0.4 0.2,0.2 0.3,0.5 0.3,0.9 0,0.3 -0.1,0.6 -0.2,0.8 -0.1,0.3 -0.4,0.4 -0.6,0.6 -0.3,0.1 -0.6,0.2 -1,0.2 -0.3,0 -0.6,-0.1 -0.9,-0.2 -0.3,-0.1 -0.5,-0.3 -0.7,-0.5 l 0.4,-0.4 c 0.2,0.2 0.4,0.3 0.5,0.4 0.2,0.1 0.4,0.1 0.6,0.1 0.3,0 0.6,-0.1 0.8,-0.3 0.2,-0.2 0.3,-0.4 0.3,-0.8 0,-0.4 -0.1,-0.6 -0.3,-0.7 -0.2,-0.1 -0.4,-0.2 -0.8,-0.2 h -0.4 l 0.1,-0.6 h 0.3 c 0.3,0 0.5,-0.1 0.7,-0.2 0.2,-0.2 0.3,-0.4 0.3,-0.7 0,-0.3 -0.1,-0.4 -0.2,-0.6 -0.2,-0.1 -0.4,-0.2 -0.6,-0.2 -0.2,0 -0.4,0 -0.6,0.1 -0.2,0.1 -0.4,0.2 -0.5,0.4 l -0.4,-0.4 c 0.5,-0.4 1,-0.6 1.5,-0.6 0.4,-0.1 0.7,0 0.9,0.1 z m 0.2,-9.7 v 5.4 h -0.7 v -4.6 l -1.2,0.8 -0.3,-0.5 1.7,-1 h 0.5 z"
     class="st3"
     id="path36"
     style="fill:#00a7b3;fill-opacity:1" />
  <path
     id="XMLID_16_"
     d="m 90.572456,46.297121 h 7.7 v 0.5 h -7.7 z"
     class="st3"
     style="fill:#00a7b3;fill-opacity:1" />
  <path
     d="M115.5 84.8v.6h-.7v1.3h-.7v-1.3h-2.3v-.5l1.6-3.6.6.3-1.4 3.3h1.5l.1-1.4h.6v1.4h.7zm-1.2-13c.2.1.4.3.5.5.1.2.2.4.2.7 0 .3-.1.6-.3.8-.2.2-.4.4-.8.4.4 0 .6.2.9.4.2.2.3.5.3.9 0 .3-.1.6-.2.8-.1.3-.4.4-.6.6-.3.1-.6.2-1 .2-.3 0-.6-.1-.9-.2-.3-.1-.5-.3-.7-.5l.4-.4c.2.2.4.3.5.4.2.1.4.1.6.1.3 0 .6-.1.8-.3.2-.2.3-.4.3-.8s-.1-.6-.3-.7c-.2-.1-.4-.2-.8-.2h-.4l.2-.5h.3c.3 0 .5-.1.7-.2.2-.2.3-.4.3-.7 0-.3-.1-.4-.2-.6-.2-.1-.4-.2-.6-.2-.2 0-.4 0-.6.1-.2.1-.4.2-.5.4l-.4-.4c.5-.4 1-.6 1.5-.6.2-.2.5-.1.8 0z"
     class="st2"
     id="path39" />
  <path
     id="XMLID_13_"
     d="M109.8 78.7h7.7v.5h-7.7z"
     class="st2" />
  <path
     d="m 133.40093,85.330955 v 0.6 l -2,4.9 -0.7,-0.2 1.9,-4.6 h -2.4 v -0.6 h 3.2 z m -0.8,-9.5 c 0.2,0.1 0.4,0.3 0.6,0.5 0.1,0.2 0.2,0.5 0.2,0.7 0,0.3 -0.1,0.6 -0.2,0.9 -0.1,0.3 -0.4,0.6 -0.7,1 -0.3,0.4 -0.8,0.8 -1.4,1.4 h 2.4 l -0.1,0.6 h -3.2 v -0.6 c 0.7,-0.7 1.2,-1.3 1.5,-1.6 0.3,-0.3 0.5,-0.6 0.6,-0.9 0.1,-0.3 0.2,-0.5 0.2,-0.8 0,-0.3 -0.1,-0.5 -0.2,-0.7 -0.1,-0.2 -0.4,-0.2 -0.6,-0.2 -0.2,0 -0.4,0 -0.6,0.1 -0.2,0.1 -0.3,0.2 -0.5,0.4 l -0.5,-0.4 c 0.2,-0.3 0.5,-0.5 0.7,-0.6 0.2,-0.1 0.6,-0.2 0.9,-0.2 0.4,0.2 0.7,0.3 0.9,0.4 z"
     class="st3"
     id="path42"
     style="fill:#00a7b3;fill-opacity:1" />
  <path
     id="XMLID_7_"
     d="m 127.80093,82.730955 h 7.7 v 0.5 h -7.7 z"
     class="st3"
     style="fill:#00a7b3;fill-opacity:1" />
  <path
     d="m 106.45575,107.72828 v 5.4 h -0.7 v -4.6 l -1.2,0.8 -0.3,-0.5 1.7,-1 h 0.5 z m 3.5,0.1 c 0.2,0.1 0.4,0.3 0.5,0.5 0.1,0.2 0.2,0.4 0.2,0.7 0,0.3 -0.1,0.6 -0.3,0.8 -0.2,0.2 -0.4,0.4 -0.8,0.4 0.4,0 0.6,0.2 0.9,0.4 0.2,0.2 0.3,0.5 0.3,0.9 0,0.3 -0.1,0.6 -0.2,0.8 -0.1,0.2 -0.4,0.4 -0.6,0.6 -0.3,0.1 -0.6,0.2 -1,0.2 -0.3,0 -0.6,-0.1 -0.9,-0.2 -0.3,-0.1 -0.5,-0.3 -0.7,-0.5 l 0.4,-0.4 c 0.2,0.2 0.4,0.3 0.5,0.4 0.2,0.1 0.4,0.1 0.6,0.1 0.3,0 0.6,-0.1 0.8,-0.3 0.2,-0.2 0.3,-0.4 0.3,-0.8 0,-0.4 -0.1,-0.6 -0.3,-0.7 -0.2,-0.1 -0.4,-0.2 -0.8,-0.2 h -0.4 l 0.1,-0.6 h 0.3 c 0.3,0 0.5,-0.1 0.7,-0.2 0.2,-0.1 0.3,-0.4 0.3,-0.7 0,-0.2 -0.1,-0.4 -0.2,-0.6 -0.1,-0.2 -0.4,-0.2 -0.6,-0.2 -0.2,0 -0.4,0 -0.6,0.1 -0.2,0.1 -0.4,0.2 -0.5,0.4 l -0.4,-0.4 c 0.5,-0.4 1,-0.6 1.5,-0.6 0.4,0 0.7,0 0.9,0.1 z m -1,-9.099998 h -2.1 v 1.599998 c 0.3,-0.1 0.6,-0.2 0.9,-0.2 0.5,0 0.8,0.2 1.1,0.5 0.3,0.3 0.4,0.7 0.4,1.2 0,0.4 -0.1,0.7 -0.2,0.9 -0.2,0.3 -0.4,0.5 -0.7,0.6 -0.3,0.2 -0.6,0.2 -1,0.2 -0.3,0 -0.6,-0.1 -0.9,-0.2 -0.3,-0.1 -0.5,-0.3 -0.7,-0.5 l 0.4,-0.4 c 0.2,0.2 0.3,0.3 0.5,0.4 0.2,0.1 0.4,0.1 0.6,0.1 0.3,0 0.6,-0.1 0.8,-0.3 0.2,-0.2 0.3,-0.5 0.3,-0.9 0,-0.4 -0.1,-0.7 -0.3,-0.8 -0.2,-0.1 -0.4,-0.3 -0.7,-0.3 -0.1,0 -0.3,0 -0.4,0 -0.1,0 -0.2,0.1 -0.4,0.1 h -0.6 v -2.699998 h 2.9 z"
     class="st3"
     id="path45"
     style="fill:#00a7b3;fill-opacity:1" />
  <path
     id="XMLID_10_"
     d="m 103.75575,105.22828 h 7.7 v 0.5 h -7.7 z"
     class="st3"
     style="fill:#00a7b3;fill-opacity:1" />
  <path
     d="m 97.855754,105.62828 v -0.4 h 4.699996 v 0.4 z"
     class="st3"
     id="path48"
     style="fill:#00a7b3;fill-opacity:1" />
  <path
     d="m 151.32498,53.145781 h -2.1 v 1.6 c 0.3,-0.1 0.6,-0.2 0.9,-0.2 0.5,0 0.8,0.2 1.1,0.5 0.3,0.3 0.4,0.7 0.4,1.2 0,0.4 -0.1,0.7 -0.2,0.9 -0.2,0.3 -0.4,0.5 -0.7,0.6 -0.3,0.2 -0.6,0.2 -1,0.2 -0.3,0 -0.6,-0.1 -0.9,-0.2 -0.3,-0.1 -0.5,-0.3 -0.7,-0.5 l 0.4,-0.4 c 0.2,0.2 0.3,0.3 0.5,0.4 0.2,0.1 0.4,0.1 0.6,0.1 0.3,0 0.6,-0.1 0.8,-0.3 0.2,-0.2 0.3,-0.5 0.3,-0.9 0,-0.4 -0.1,-0.7 -0.3,-0.8 -0.2,-0.2 -0.4,-0.3 -0.7,-0.3 -0.1,0 -0.3,0 -0.4,0 -0.1,0 -0.2,0.1 -0.4,0.1 h -0.6 v -2.7 h 2.9 z m -8.3,2.8 0.3,0.3 0.3,-0.4 1,2.9 3.1,-8.2 h 4.6 v -0.3 h -4.8 l -2.6,6.9 -0.9,-2.4 z m -1.7,-18 c -0.1,0.1 -0.2,0.2 -0.4,0.2 h -0.7 c -0.2,0.5 -0.6,2.2 -0.6,2.4 0,0.3 0.2,0.5 0.5,0.5 0.1,0 0.1,0 0.2,-0.1 0.1,0 0.1,0 0.2,0 0.1,0 0.1,0 0.1,0.1 0,0 -0.2,0.6 -0.7,0.6 -0.5,0 -0.7,-0.3 -0.7,-0.8 0,-0.2 0,-0.4 0.1,-0.5 0.2,-0.7 0.5,-1.4 0.6,-2.1 h -1 c -0.2,0.8 -0.6,1.5 -0.9,2.3 -0.3,1 -0.6,1.1 -0.8,1.1 -0.2,0 -0.4,-0.1 -0.4,-0.4 0,-0.1 0,-0.2 0.1,-0.3 0.2,-0.2 0.5,-0.4 0.7,-0.7 0.5,-0.6 0.7,-1.5 0.9,-2 h -0.4 c -0.3,0 -0.5,0.1 -0.6,0.4 0,0.1 -0.1,0.1 -0.1,0.1 -0.1,0 -0.1,-0.1 -0.1,-0.2 0,-0.2 0.2,-1 1.1,-1 h 2.5 c 0.2,0 0.3,0 0.4,0 0.1,0 0.1,0 0.2,0 0.1,0 0.1,0 0.1,0.1 0,0 0,0.1 0,0.1 z"
     class="st4"
     id="path50"
     style="fill:#d40042;fill-opacity:1" />
  <text
     xml:space="preserve"
     style="font-style:normal;font-weight:normal;font-size:40px;line-height:1.25;font-family:sans-serif;fill:#000000;fill-opacity:1;stroke:none"
     x="145.1219"
     y="73.74398"
     id="text59412"><tspan
       sodipodi:role="line"
       id="tspan59410"></tspan></text>
</svg>
