<?xml version="1.0" encoding="UTF-8" standalone="no"?>
<!-- Created with Inkscape (http://www.inkscape.org/) -->

<svg
   width="297mm"
   height="210mm"
   viewBox="0 0 297 210"
   version="1.1"
   id="svg5"
   sodipodi:docname="pizzeria.svg"
   inkscape:version="1.2.2 (b0a8486541, 2022-12-01)"
   xmlns:inkscape="http://www.inkscape.org/namespaces/inkscape"
   xmlns:sodipodi="http://sodipodi.sourceforge.net/DTD/sodipodi-0.dtd"
   xmlns="http://www.w3.org/2000/svg"
   xmlns:svg="http://www.w3.org/2000/svg">
  <sodipodi:namedview
     id="namedview7"
     pagecolor="#ffffff"
     bordercolor="#666666"
     borderopacity="1.0"
     inkscape:showpageshadow="2"
     inkscape:pageopacity="0.0"
     inkscape:pagecheckerboard="0"
     inkscape:deskcolor="#d1d1d1"
     inkscape:document-units="mm"
     showgrid="false"
     inkscape:zoom="0.73673541"
     inkscape:cx="495.42888"
     inkscape:cy="296.57866"
     inkscape:window-width="1920"
     inkscape:window-height="1008"
     inkscape:window-x="0"
     inkscape:window-y="0"
     inkscape:window-maximized="1"
     inkscape:current-layer="layer1" />
  <defs
     id="defs2">
    <rect
       x="1044.9021"
       y="259.72839"
       width="64.910548"
       height="373.77373"
       id="rect31085" />
  </defs>
  <g
     inkscape:label="Layer 1"
     inkscape:groupmode="layer"
     id="layer1">
    <rect
       style="fill:#d4aa00;fill-opacity:1;fill-rule:evenodd;stroke:#000000;stroke-width:0.347967"
       id="rect1514"
       width="242.50687"
       height="175.02869"
       x="28.333378"
       y="22.757627" />
    <g
       id="g30948"
       transform="matrix(1.2321315,0,0,1.2321315,-26.24754,-13.909571)">
      <rect
         style="fill:#000000;fill-opacity:1;fill-rule:evenodd;stroke:#784421;stroke-width:1.85546;stroke-dasharray:none;stroke-opacity:1"
         id="rect3700"
         width="40.173618"
         height="59.298061"
         x="104.45535"
         y="81.551849" />
      <g
         id="g30931"
         transform="translate(-0.26185056,0.39078117)">
        <g
           id="g30746"
           style="fill:#333333;stroke:#333333">
          <path
             id="rect2970"
             style="fill:#333333;fill-opacity:1;fill-rule:evenodd;stroke:#333333;stroke-width:0.264583"
             d="M 97.609029,126.48427 70.353328,171.43088 H 97.609029 Z" />
          <path
             id="path28534"
             style="fill:#333333;fill-opacity:1;fill-rule:evenodd;stroke:#333333;stroke-width:0.264583"
             d="m 85.241309,80.365637 -33.47806,55.207483 v 35.85776 h 0.15968 l 45.6861,-75.339588 V 80.365637 Z" />
          <path
             id="path28531"
             style="fill:#333333;fill-opacity:1;fill-rule:evenodd;stroke:#333333;stroke-width:0.264583"
             d="M 66.810909,80.365637 H 51.763249 V 105.18014 Z" />
        </g>
        <path
           id="path28536"
           style="fill:#4d4d4d;fill-opacity:1;fill-rule:evenodd;stroke:#4d4d4d;stroke-width:0.264583"
           d="m 97.609029,96.091292 -45.6861,75.339588 h 18.430399 l 27.255701,-44.94661 z" />
        <path
           id="path28529"
           style="fill:#4d4d4d;fill-opacity:1;fill-rule:evenodd;stroke:#4d4d4d;stroke-width:0.264583"
           d="m 66.810909,80.365637 -15.04766,24.814503 v 30.39298 l 33.47806,-55.207483 z" />
      </g>
      <g
         id="g30923"
         transform="translate(-0.26185056,0.39078117)">
        <g
           id="g30751"
           style="fill:#333333;stroke:#333333">
          <path
             id="rect3702"
             style="fill:#333333;fill-opacity:1;fill-rule:evenodd;stroke:#333333;stroke-width:0.264583"
             d="m 202.7809,155.05203 h 31.39447 v -51.77151 z" />
          <path
             id="path30734"
             style="fill:#333333;fill-opacity:1;fill-rule:evenodd;stroke:#333333;stroke-width:0.264583"
             d="M 204.56116,80.365637 H 192.41875 L 151.99899,147.021 v 8.03103 h 7.27191 z" />
          <path
             id="path28541"
             style="fill:#333333;fill-opacity:1;fill-rule:evenodd;stroke:#333333;stroke-width:0.264583"
             d="M 173.98835,80.365637 H 151.99899 V 116.62751 Z" />
        </g>
        <path
           id="path30732"
           style="fill:#4d4d4d;fill-opacity:1;fill-rule:evenodd;stroke:#4d4d4d;stroke-width:0.264583"
           d="M 204.56116,80.365637 159.2709,155.05203 h 43.51 l 31.39447,-51.77151 V 80.365637 Z" />
        <path
           id="path28539"
           style="fill:#4d4d4d;fill-opacity:1;fill-rule:evenodd;stroke:#4d4d4d;stroke-width:0.264583"
           d="M 173.98835,80.365637 151.99899,116.62751 V 147.021 l 40.41976,-66.655363 z" />
      </g>
    </g>
    <rect
       style="fill:#554400;fill-rule:evenodd;stroke:#000000;stroke-width:0.326001"
       id="rect5156"
       width="250.69592"
       height="15.692481"
       x="24.137032"
       y="10.596948" />
    <path
       style="fill:#554400;fill-rule:evenodd;stroke:#000000;stroke-width:0.312891"
       d="m 25.212666,199.11447 v -2.50313 H 149.5868 273.96095 v 2.50313 2.50313 H 149.5868 25.212666 Z"
       id="path6187" />
    <g
       id="g20822"
       transform="matrix(0.68549409,0,0,0.68549409,0.42042773,-23.133559)"
       style="opacity:1">
      <path
         style="fill:#d4aa00;fill-rule:evenodd;stroke:#000000;stroke-width:1"
         id="path17255"
         sodipodi:type="arc"
         sodipodi:cx="104.95552"
         sodipodi:cy="93.152168"
         sodipodi:rx="48.063423"
         sodipodi:ry="48.063423"
         sodipodi:start="0"
         sodipodi:end="5.2831752"
         sodipodi:arc-type="slice"
         d="M 153.01894,93.152168 A 48.063423,48.063423 0 0 1 116.84672,139.72139 48.063423,48.063423 0 0 1 62.776015,116.19521 48.063423,48.063423 0 0 1 72.193362,57.984945 48.063423,48.063423 0 0 1 130.92389,52.70793 l -25.96837,40.444238 z" />
      <path
         id="path17255-5"
         style="fill:#ff0000;fill-rule:evenodd;stroke:#000000;stroke-width:0.875138"
         d="m 126.14992,93.152454 a 7.2385278,7.2385278 0 0 0 -0.0491,0.432015 7.2385278,7.2385278 0 0 0 -0.0202,0.540535 7.2385278,7.2385278 0 0 0 0.0202,0.541052 7.2385278,7.2385278 0 0 0 0.061,0.537952 7.2385278,7.2385278 0 0 0 0.10025,0.53175 7.2385278,7.2385278 0 0 0 0.14056,0.522966 7.2385278,7.2385278 0 0 0 0.1788,0.51108 7.2385278,7.2385278 0 0 0 0.21601,0.496094 7.2385278,7.2385278 0 0 0 0.25321,0.478523 7.2385278,7.2385278 0 0 0 0.28784,0.45837 7.2385278,7.2385278 0 0 0 0.32143,0.435633 7.2385278,7.2385278 0 0 0 0.35346,0.410311 7.2385278,7.2385278 0 0 0 0.38241,0.382405 7.2385278,7.2385278 0 0 0 0.41031,0.353467 7.2385278,7.2385278 0 0 0 0.43563,0.321423 7.2385278,7.2385278 0 0 0 0.45837,0.28784 7.2385278,7.2385278 0 0 0 0.47853,0.25322 7.2385278,7.2385278 0 0 0 0.49609,0.216 7.2385278,7.2385278 0 0 0 0.51108,0.1788 7.2385278,7.2385278 0 0 0 0.52297,0.14056 7.2385278,7.2385278 0 0 0 0.53175,0.10026 7.2385278,7.2385278 0 0 0 0.53795,0.061 7.2385278,7.2385278 0 0 0 0.54105,0.0202 7.2385278,7.2385278 0 0 0 0.54054,-0.0202 7.2385278,7.2385278 0 0 0 0.53795,-0.061 7.2385278,7.2385278 0 0 0 0.53227,-0.10026 7.2385278,7.2385278 0 0 0 0.52244,-0.14056 7.2385278,7.2385278 0 0 0 0.51108,-0.1788 7.2385278,7.2385278 0 0 0 0.4961,-0.216 7.2385278,7.2385278 0 0 0 0.47852,-0.25322 7.2385278,7.2385278 0 0 0 0.45837,-0.28784 7.2385278,7.2385278 0 0 0 0.43563,-0.321423 7.2385278,7.2385278 0 0 0 0.41031,-0.353467 7.2385278,7.2385278 0 0 0 0.38293,-0.382405 7.2385278,7.2385278 0 0 0 0.35295,-0.410311 7.2385278,7.2385278 0 0 0 0.32142,-0.435633 7.2385278,7.2385278 0 0 0 0.28784,-0.45837 7.2385278,7.2385278 0 0 0 0.25322,-0.478523 7.2385278,7.2385278 0 0 0 0.21652,-0.496094 7.2385278,7.2385278 0 0 0 0.1788,-0.51108 7.2385278,7.2385278 0 0 0 0.14004,-0.522966 7.2385278,7.2385278 0 0 0 0.10077,-0.53175 7.2385278,7.2385278 0 0 0 0.0605,-0.537952 7.2385278,7.2385278 0 0 0 0.0202,-0.541052 7.2385278,7.2385278 0 0 0 -0.003,-0.186035 7.2385278,7.2385278 0 0 0 -0.007,-0.186552 7.2385278,7.2385278 0 0 0 -0.0119,-0.186035 7.2385278,7.2385278 0 0 0 -0.0165,-0.185519 7.2385278,7.2385278 0 0 0 -0.0217,-0.185001 7.2385278,7.2385278 0 0 0 -0.006,-0.04341 z" />
      <path
         id="path20612"
         style="fill:#ff0000;fill-rule:evenodd;stroke:#000000;stroke-width:0.875138"
         d="m 124.05134,63.41215 a 7.2385278,7.2385278 0 0 0 -0.33693,-0.163814 7.2385278,7.2385278 0 0 0 -0.40411,-0.167432 7.2385278,7.2385278 0 0 0 -0.41341,-0.142627 7.2385278,7.2385278 0 0 0 -0.42116,-0.117305 7.2385278,7.2385278 0 0 0 -0.42737,-0.09198 7.2385278,7.2385278 0 0 0 -0.43253,-0.06563 7.2385278,7.2385278 0 0 0 -0.43511,-0.03979 7.2385278,7.2385278 0 0 0 -0.43719,-0.01292 7.2385278,7.2385278 0 0 0 -1.25728,0.11007 7.2385278,7.2385278 0 0 0 -1.21853,0.326595 7.2385278,7.2385278 0 0 0 -1.1436,0.532784 7.2385278,7.2385278 0 0 0 -1.03353,0.723987 7.2385278,7.2385278 0 0 0 -0.89194,0.891936 7.2385278,7.2385278 0 0 0 -0.72398,1.033528 7.2385278,7.2385278 0 0 0 -0.5333,1.1436 7.2385278,7.2385278 0 0 0 -0.3266,1.219047 7.2385278,7.2385278 0 0 0 -0.11007,1.25677 7.2385278,7.2385278 0 0 0 0.11007,1.257288 7.2385278,7.2385278 0 0 0 0.3266,1.21853 7.2385278,7.2385278 0 0 0 0.5333,1.1436 7.2385278,7.2385278 0 0 0 0.72398,1.033528 7.2385278,7.2385278 0 0 0 0.89194,0.891936 7.2385278,7.2385278 0 0 0 0.18448,0.129191 z" />
      <path
         id="path20615"
         style="fill:#ff0000;fill-rule:evenodd;stroke:#000000;stroke-width:0.875138"
         d="m 108.91738,86.982288 a 7.2385278,7.2385278 0 0 0 -0.23099,-0.112138 7.2385278,7.2385278 0 0 0 -0.40359,-0.167432 7.2385278,7.2385278 0 0 0 -0.41342,-0.142627 7.2385278,7.2385278 0 0 0 -0.42116,-0.117305 7.2385278,7.2385278 0 0 0 -0.42788,-0.09198 7.2385278,7.2385278 0 0 0 -0.43201,-0.06563 7.2385278,7.2385278 0 0 0 -0.43564,-0.03979 7.2385278,7.2385278 0 0 0 -0.43718,-0.01292 7.2385278,7.2385278 0 0 0 -1.25677,0.109554 7.2385278,7.2385278 0 0 0 -1.21853,0.326595 7.2385278,7.2385278 0 0 0 -1.1436,0.5333 7.2385278,7.2385278 0 0 0 -1.03353,0.723987 7.2385278,7.2385278 0 0 0 -0.89245,0.891935 7.2385278,7.2385278 0 0 0 -0.72347,1.033529 7.2385278,7.2385278 0 0 0 -0.533301,1.1436 7.2385278,7.2385278 0 0 0 -0.326595,1.219047 7.2385278,7.2385278 0 0 0 -0.110071,1.25677 7.2385278,7.2385278 0 0 0 0.110071,1.256771 7.2385278,7.2385278 0 0 0 0.326595,1.219047 7.2385278,7.2385278 0 0 0 0.533301,1.1436 7.2385278,7.2385278 0 0 0 0.72347,1.033528 7.2385278,7.2385278 0 0 0 0.89245,0.891936 7.2385278,7.2385278 0 0 0 1.03353,0.723986 7.2385278,7.2385278 0 0 0 1.1436,0.533299 7.2385278,7.2385278 0 0 0 1.21853,0.32659 7.2385278,7.2385278 0 0 0 1.25677,0.10956 7.2385278,7.2385278 0 0 0 1.25729,-0.10956 7.2385278,7.2385278 0 0 0 1.21853,-0.32659 7.2385278,7.2385278 0 0 0 1.1436,-0.533299 7.2385278,7.2385278 0 0 0 1.03353,-0.723986 7.2385278,7.2385278 0 0 0 0.89245,-0.891936 7.2385278,7.2385278 0 0 0 0.72347,-1.033528 7.2385278,7.2385278 0 0 0 0.5333,-1.1436 7.2385278,7.2385278 0 0 0 0.32659,-1.219047 7.2385278,7.2385278 0 0 0 0.11008,-1.256771 7.2385278,7.2385278 0 0 0 -0.01,-0.318326 h -7.98918 z" />
      <path
         id="path20621"
         style="fill:#ff0000;fill-rule:evenodd;stroke:#000000;stroke-width:0.875138"
         d="m 99.57015,134.86774 a 7.2385278,7.2385278 0 0 0 0.421163,-0.29508 7.2385278,7.2385278 0 0 0 0.891937,-0.89193 7.2385278,7.2385278 0 0 0 0.72398,-1.03353 7.2385278,7.2385278 0 0 0 0.53331,-1.1436 7.2385278,7.2385278 0 0 0 0.32659,-1.21905 7.2385278,7.2385278 0 0 0 0.10955,-1.25677 7.2385278,7.2385278 0 0 0 -0.0129,-0.43718 7.2385278,7.2385278 0 0 0 -0.0398,-0.43511 7.2385278,7.2385278 0 0 0 -0.0656,-0.43254 7.2385278,7.2385278 0 0 0 -0.092,-0.42736 7.2385278,7.2385278 0 0 0 -0.1173,-0.42116 7.2385278,7.2385278 0 0 0 -0.14263,-0.41342 7.2385278,7.2385278 0 0 0 -0.16743,-0.4041 7.2385278,7.2385278 0 0 0 -0.19121,-0.39326 7.2385278,7.2385278 0 0 0 -0.21497,-0.38086 7.2385278,7.2385278 0 0 0 -0.23719,-0.3669 7.2385278,7.2385278 0 0 0 -0.25942,-0.35243 7.2385278,7.2385278 0 0 0 -0.27957,-0.3359 7.2385278,7.2385278 0 0 0 -0.29972,-0.31833 7.2385278,7.2385278 0 0 0 -0.31833,-0.29972 7.2385278,7.2385278 0 0 0 -0.335896,-0.27957 7.2385278,7.2385278 0 0 0 -0.352434,-0.25942 7.2385278,7.2385278 0 0 0 -0.367419,-0.23719 7.2385278,7.2385278 0 0 0 -0.380855,-0.21497 7.2385278,7.2385278 0 0 0 -0.392741,-0.19121 7.2385278,7.2385278 0 0 0 -0.40411,-0.16743 7.2385278,7.2385278 0 0 0 -0.413411,-0.14263 7.2385278,7.2385278 0 0 0 -0.421163,-0.1173 7.2385278,7.2385278 0 0 0 -0.427364,-0.092 7.2385278,7.2385278 0 0 0 -0.432532,-0.0656 7.2385278,7.2385278 0 0 0 -0.435116,-0.0398 7.2385278,7.2385278 0 0 0 -0.437182,-0.0129 7.2385278,7.2385278 0 0 0 -1.256771,0.10955 7.2385278,7.2385278 0 0 0 -1.219047,0.32659 7.2385278,7.2385278 0 0 0 -1.1436,0.53331 7.2385278,7.2385278 0 0 0 -1.033528,0.72398 7.2385278,7.2385278 0 0 0 -0.891935,0.89194 7.2385278,7.2385278 0 0 0 -0.723987,1.03353 7.2385278,7.2385278 0 0 0 -0.533301,1.1436 7.2385278,7.2385278 0 0 0 -0.326595,1.21904 7.2385278,7.2385278 0 0 0 -0.109554,1.25677 7.2385278,7.2385278 0 0 0 0.109554,1.25677 7.2385278,7.2385278 0 0 0 0.326595,1.21905 7.2385278,7.2385278 0 0 0 0.21394,0.45837 42.062138,42.062138 0 0 0 10.820012,2.90577 z" />
      <path
         id="path20661"
         style="fill:#008000;fill-rule:evenodd;stroke:#000000;stroke-width:0.875138"
         d="m 144.01447,108.75925 a 4.825685,4.825685 0 0 0 -0.17415,-0.10955 4.825685,4.825685 0 0 0 -0.31885,-0.16847 4.825685,4.825685 0 0 0 -0.33073,-0.14417 4.825685,4.825685 0 0 0 -0.34106,-0.11938 4.825685,4.825685 0 0 0 -0.3483,-0.0935 4.825685,4.825685 0 0 0 -0.3545,-0.0672 4.825685,4.825685 0 0 0 -0.35864,-0.0403 4.825685,4.825685 0 0 0 -0.3607,-0.0134 4.825685,4.825685 0 0 0 -1.07383,0.12092 4.825685,4.825685 0 0 0 -1.0201,0.35708 4.825685,4.825685 0 0 0 -0.91467,0.57465 4.825685,4.825685 0 0 0 -0.76429,0.76429 4.825685,4.825685 0 0 0 -0.57516,0.91519 4.825685,4.825685 0 0 0 -0.35657,1.01958 4.825685,4.825685 0 0 0 -0.12092,1.07383 4.825685,4.825685 0 0 0 0.12092,1.07384 4.825685,4.825685 0 0 0 0.35657,1.02009 4.825685,4.825685 0 0 0 0.57516,0.91519 4.825685,4.825685 0 0 0 0.76429,0.76378 4.825685,4.825685 0 0 0 0.91467,0.57516 4.825685,4.825685 0 0 0 0.11834,0.0413 42.062138,42.062138 0 0 0 4.56252,-8.45892 z" />
      <path
         id="path20803"
         style="fill:#ffcc00;fill-rule:evenodd;stroke:#000000;stroke-width:0.875138"
         d="m 104.92228,51.090422 a 42.062138,42.062138 0 0 0 -0.64957,0.0057 42.062138,42.062138 0 0 0 -6.55361,0.623218 7.2385278,7.2385278 0 0 1 0.205155,0.171049 7.2385278,7.2385278 0 0 1 0.318327,0.299723 7.2385278,7.2385278 0 0 1 0.299724,0.318327 7.2385278,7.2385278 0 0 1 0.280086,0.335897 7.2385278,7.2385278 0 0 1 0.258899,0.351916 7.2385278,7.2385278 0 0 1 0.237711,0.36742 7.2385278,7.2385278 0 0 1 0.214974,0.380855 7.2385278,7.2385278 0 0 1 0.191203,0.393258 7.2385278,7.2385278 0 0 1 0.167432,0.403592 7.2385278,7.2385278 0 0 1 0.142629,0.413412 7.2385278,7.2385278 0 0 1 0.1173,0.421163 7.2385278,7.2385278 0 0 1 0.092,0.427364 7.2385278,7.2385278 0 0 1 0.0656,0.432532 7.2385278,7.2385278 0 0 1 0.0393,0.435632 7.2385278,7.2385278 0 0 1 0.0134,0.436666 7.2385278,7.2385278 0 0 1 -0.11007,1.257287 7.2385278,7.2385278 0 0 1 -0.3266,1.218531 7.2385278,7.2385278 0 0 1 -0.5333,1.143599 7.2385278,7.2385278 0 0 1 -0.72347,1.033529 7.2385278,7.2385278 0 0 1 -0.892452,0.892452 7.2385278,7.2385278 0 0 1 -1.033529,0.72347 7.2385278,7.2385278 0 0 1 -1.1436,0.533301 7.2385278,7.2385278 0 0 1 -1.21853,0.326595 7.2385278,7.2385278 0 0 1 -1.256771,0.110071 7.2385278,7.2385278 0 0 1 -1.257287,-0.110071 7.2385278,7.2385278 0 0 1 -1.218531,-0.326595 7.2385278,7.2385278 0 0 1 -1.143599,-0.533301 7.2385278,7.2385278 0 0 1 -1.033529,-0.72347 7.2385278,7.2385278 0 0 1 -0.892452,-0.892452 7.2385278,7.2385278 0 0 1 -0.72347,-1.033529 7.2385278,7.2385278 0 0 1 -0.5333,-1.143599 7.2385278,7.2385278 0 0 1 -0.326595,-1.218531 7.2385278,7.2385278 0 0 1 -0.110071,-1.257287 7.2385278,7.2385278 0 0 1 0.110071,-1.256771 7.2385278,7.2385278 0 0 1 0.137459,-0.513664 42.062138,42.062138 0 0 0 -9.849011,6.838343 42.062138,42.062138 0 0 0 -8.241875,50.942116 42.062138,42.062138 0 0 0 20.70778,18.64382 7.2385278,7.2385278 0 0 1 -0.21394,-0.45837 7.2385278,7.2385278 0 0 1 -0.326595,-1.21905 7.2385278,7.2385278 0 0 1 -0.109554,-1.25677 7.2385278,7.2385278 0 0 1 0.109554,-1.25677 7.2385278,7.2385278 0 0 1 0.326595,-1.21904 7.2385278,7.2385278 0 0 1 0.533301,-1.1436 7.2385278,7.2385278 0 0 1 0.723987,-1.03353 7.2385278,7.2385278 0 0 1 0.891935,-0.89194 7.2385278,7.2385278 0 0 1 1.033528,-0.72398 7.2385278,7.2385278 0 0 1 1.1436,-0.53331 7.2385278,7.2385278 0 0 1 1.219047,-0.32659 7.2385278,7.2385278 0 0 1 1.256771,-0.10955 7.2385278,7.2385278 0 0 1 0.437182,0.0129 7.2385278,7.2385278 0 0 1 0.435116,0.0398 7.2385278,7.2385278 0 0 1 0.432532,0.0656 7.2385278,7.2385278 0 0 1 0.427364,0.092 7.2385278,7.2385278 0 0 1 0.421163,0.1173 7.2385278,7.2385278 0 0 1 0.413411,0.14263 7.2385278,7.2385278 0 0 1 0.40411,0.16743 7.2385278,7.2385278 0 0 1 0.392741,0.19121 7.2385278,7.2385278 0 0 1 0.380855,0.21497 7.2385278,7.2385278 0 0 1 0.367419,0.23719 7.2385278,7.2385278 0 0 1 0.352434,0.25942 7.2385278,7.2385278 0 0 1 0.335896,0.27957 7.2385278,7.2385278 0 0 1 0.31833,0.29972 7.2385278,7.2385278 0 0 1 0.29972,0.31833 7.2385278,7.2385278 0 0 1 0.27957,0.3359 7.2385278,7.2385278 0 0 1 0.25942,0.35243 7.2385278,7.2385278 0 0 1 0.23719,0.3669 7.2385278,7.2385278 0 0 1 0.21497,0.38086 7.2385278,7.2385278 0 0 1 0.19121,0.39326 7.2385278,7.2385278 0 0 1 0.16743,0.4041 7.2385278,7.2385278 0 0 1 0.14263,0.41342 7.2385278,7.2385278 0 0 1 0.1173,0.42116 7.2385278,7.2385278 0 0 1 0.092,0.42736 7.2385278,7.2385278 0 0 1 0.0656,0.43254 7.2385278,7.2385278 0 0 1 0.0398,0.43511 7.2385278,7.2385278 0 0 1 0.0129,0.43718 7.2385278,7.2385278 0 0 1 -0.10955,1.25677 7.2385278,7.2385278 0 0 1 -0.32659,1.21905 7.2385278,7.2385278 0 0 1 -0.53331,1.1436 7.2385278,7.2385278 0 0 1 -0.72398,1.03353 7.2385278,7.2385278 0 0 1 -0.891937,0.89193 7.2385278,7.2385278 0 0 1 -0.421163,0.29508 42.062138,42.062138 0 0 0 15.7918,-0.96067 42.062138,42.062138 0 0 0 24.09,-16.6889 4.825685,4.825685 0 0 1 -0.11834,-0.0413 4.825685,4.825685 0 0 1 -0.91467,-0.57516 4.825685,4.825685 0 0 1 -0.76429,-0.76378 4.825685,4.825685 0 0 1 -0.57516,-0.91519 4.825685,4.825685 0 0 1 -0.35657,-1.02009 4.825685,4.825685 0 0 1 -0.12092,-1.07384 4.825685,4.825685 0 0 1 0.12092,-1.07383 4.825685,4.825685 0 0 1 0.35657,-1.01958 4.825685,4.825685 0 0 1 0.57516,-0.91519 4.825685,4.825685 0 0 1 0.76429,-0.76429 4.825685,4.825685 0 0 1 0.91467,-0.57465 4.825685,4.825685 0 0 1 1.0201,-0.35708 4.825685,4.825685 0 0 1 1.07383,-0.12092 4.825685,4.825685 0 0 1 0.3607,0.0134 4.825685,4.825685 0 0 1 0.35864,0.0403 4.825685,4.825685 0 0 1 0.3545,0.0672 4.825685,4.825685 0 0 1 0.3483,0.0935 4.825685,4.825685 0 0 1 0.34106,0.11938 4.825685,4.825685 0 0 1 0.33073,0.14417 4.825685,4.825685 0 0 1 0.31885,0.16847 4.825685,4.825685 0 0 1 0.17415,0.10955 42.062138,42.062138 0 0 0 3.00291,-15.6068 h -6.5257 a 7.2385278,7.2385278 0 0 1 0.006,0.04341 7.2385278,7.2385278 0 0 1 0.0217,0.185001 7.2385278,7.2385278 0 0 1 0.0165,0.185519 7.2385278,7.2385278 0 0 1 0.0119,0.186035 7.2385278,7.2385278 0 0 1 0.007,0.186552 7.2385278,7.2385278 0 0 1 0.003,0.186035 7.2385278,7.2385278 0 0 1 -0.0202,0.541052 7.2385278,7.2385278 0 0 1 -0.0605,0.537952 7.2385278,7.2385278 0 0 1 -0.10077,0.53175 7.2385278,7.2385278 0 0 1 -0.14004,0.522966 7.2385278,7.2385278 0 0 1 -0.1788,0.51108 7.2385278,7.2385278 0 0 1 -0.21652,0.496094 7.2385278,7.2385278 0 0 1 -0.25322,0.478523 7.2385278,7.2385278 0 0 1 -0.28784,0.45837 7.2385278,7.2385278 0 0 1 -0.32142,0.435633 7.2385278,7.2385278 0 0 1 -0.35295,0.410311 7.2385278,7.2385278 0 0 1 -0.38293,0.382405 7.2385278,7.2385278 0 0 1 -0.41031,0.353467 7.2385278,7.2385278 0 0 1 -0.43563,0.321425 7.2385278,7.2385278 0 0 1 -0.45837,0.28784 7.2385278,7.2385278 0 0 1 -0.47852,0.25322 7.2385278,7.2385278 0 0 1 -0.4961,0.216 7.2385278,7.2385278 0 0 1 -0.51108,0.1788 7.2385278,7.2385278 0 0 1 -0.52244,0.14056 7.2385278,7.2385278 0 0 1 -0.53227,0.10026 7.2385278,7.2385278 0 0 1 -0.53795,0.061 7.2385278,7.2385278 0 0 1 -0.54054,0.0202 7.2385278,7.2385278 0 0 1 -0.54105,-0.0202 7.2385278,7.2385278 0 0 1 -0.53795,-0.061 7.2385278,7.2385278 0 0 1 -0.53175,-0.10026 7.2385278,7.2385278 0 0 1 -0.52297,-0.14056 7.2385278,7.2385278 0 0 1 -0.51108,-0.1788 7.2385278,7.2385278 0 0 1 -0.49609,-0.216 7.2385278,7.2385278 0 0 1 -0.47853,-0.25322 7.2385278,7.2385278 0 0 1 -0.45837,-0.28784 7.2385278,7.2385278 0 0 1 -0.43563,-0.321425 7.2385278,7.2385278 0 0 1 -0.41031,-0.353467 7.2385278,7.2385278 0 0 1 -0.38241,-0.382405 7.2385278,7.2385278 0 0 1 -0.35346,-0.410311 7.2385278,7.2385278 0 0 1 -0.32143,-0.435633 7.2385278,7.2385278 0 0 1 -0.28784,-0.45837 7.2385278,7.2385278 0 0 1 -0.25321,-0.478523 7.2385278,7.2385278 0 0 1 -0.21601,-0.496094 7.2385278,7.2385278 0 0 1 -0.1788,-0.51108 7.2385278,7.2385278 0 0 1 -0.14056,-0.522966 7.2385278,7.2385278 0 0 1 -0.10025,-0.53175 7.2385278,7.2385278 0 0 1 -0.061,-0.537952 7.2385278,7.2385278 0 0 1 -0.0202,-0.541052 7.2385278,7.2385278 0 0 1 0.0202,-0.540535 7.2385278,7.2385278 0 0 1 0.0491,-0.432015 h -13.20539 a 7.2385278,7.2385278 0 0 1 0.01,0.318326 7.2385278,7.2385278 0 0 1 -0.11008,1.256771 7.2385278,7.2385278 0 0 1 -0.32659,1.219047 7.2385278,7.2385278 0 0 1 -0.5333,1.1436 7.2385278,7.2385278 0 0 1 -0.72347,1.033528 7.2385278,7.2385278 0 0 1 -0.89245,0.891936 7.2385278,7.2385278 0 0 1 -1.03353,0.723986 7.2385278,7.2385278 0 0 1 -1.1436,0.533304 7.2385278,7.2385278 0 0 1 -1.21853,0.32659 7.2385278,7.2385278 0 0 1 -1.25729,0.10956 7.2385278,7.2385278 0 0 1 -1.25677,-0.10956 7.2385278,7.2385278 0 0 1 -1.21853,-0.32659 7.2385278,7.2385278 0 0 1 -1.1436,-0.533304 7.2385278,7.2385278 0 0 1 -1.03353,-0.723986 7.2385278,7.2385278 0 0 1 -0.89245,-0.891936 7.2385278,7.2385278 0 0 1 -0.72347,-1.033528 7.2385278,7.2385278 0 0 1 -0.533301,-1.1436 7.2385278,7.2385278 0 0 1 -0.326595,-1.219047 7.2385278,7.2385278 0 0 1 -0.110071,-1.256771 7.2385278,7.2385278 0 0 1 0.110071,-1.25677 7.2385278,7.2385278 0 0 1 0.326595,-1.219047 7.2385278,7.2385278 0 0 1 0.533301,-1.1436 7.2385278,7.2385278 0 0 1 0.72347,-1.033529 7.2385278,7.2385278 0 0 1 0.89245,-0.891935 7.2385278,7.2385278 0 0 1 1.03353,-0.723987 7.2385278,7.2385278 0 0 1 1.1436,-0.5333 7.2385278,7.2385278 0 0 1 1.21853,-0.326595 7.2385278,7.2385278 0 0 1 1.25677,-0.109554 7.2385278,7.2385278 0 0 1 0.43718,0.01292 7.2385278,7.2385278 0 0 1 0.43564,0.03979 7.2385278,7.2385278 0 0 1 0.43201,0.06563 7.2385278,7.2385278 0 0 1 0.42788,0.09198 7.2385278,7.2385278 0 0 1 0.42116,0.117305 7.2385278,7.2385278 0 0 1 0.41342,0.142627 7.2385278,7.2385278 0 0 1 0.40359,0.167432 7.2385278,7.2385278 0 0 1 0.23099,0.112138 l 7.35769,-11.459249 a 7.2385278,7.2385278 0 0 1 -0.18448,-0.129191 7.2385278,7.2385278 0 0 1 -0.89194,-0.891936 7.2385278,7.2385278 0 0 1 -0.72398,-1.033528 7.2385278,7.2385278 0 0 1 -0.5333,-1.1436 7.2385278,7.2385278 0 0 1 -0.3266,-1.21853 7.2385278,7.2385278 0 0 1 -0.11007,-1.257288 7.2385278,7.2385278 0 0 1 0.11007,-1.25677 7.2385278,7.2385278 0 0 1 0.3266,-1.219047 7.2385278,7.2385278 0 0 1 0.5333,-1.1436 7.2385278,7.2385278 0 0 1 0.72398,-1.033528 7.2385278,7.2385278 0 0 1 0.89194,-0.891936 7.2385278,7.2385278 0 0 1 1.03353,-0.723987 7.2385278,7.2385278 0 0 1 1.1436,-0.532784 7.2385278,7.2385278 0 0 1 1.21853,-0.326595 7.2385278,7.2385278 0 0 1 1.25728,-0.11007 7.2385278,7.2385278 0 0 1 0.43719,0.01292 7.2385278,7.2385278 0 0 1 0.43511,0.03979 7.2385278,7.2385278 0 0 1 0.43253,0.06563 7.2385278,7.2385278 0 0 1 0.42737,0.09198 7.2385278,7.2385278 0 0 1 0.42116,0.117305 7.2385278,7.2385278 0 0 1 0.41341,0.142627 7.2385278,7.2385278 0 0 1 0.40411,0.167432 7.2385278,7.2385278 0 0 1 0.33693,0.163814 l 3.63027,-5.653918 a 42.062138,42.062138 0 0 0 -22.10924,-6.66316 42.062138,42.062138 0 0 0 -0.65009,-0.0047 z" />
      <path
         id="path20618"
         style="fill:#ff0000;fill-rule:evenodd;stroke:#000000;stroke-width:0.875138"
         d="m 86.133244,55.537695 a 7.2385278,7.2385278 0 0 0 -0.137459,0.513664 7.2385278,7.2385278 0 0 0 -0.110071,1.256771 7.2385278,7.2385278 0 0 0 0.110071,1.257287 7.2385278,7.2385278 0 0 0 0.326595,1.218531 7.2385278,7.2385278 0 0 0 0.5333,1.143599 7.2385278,7.2385278 0 0 0 0.72347,1.033529 7.2385278,7.2385278 0 0 0 0.892452,0.892452 7.2385278,7.2385278 0 0 0 1.033529,0.72347 7.2385278,7.2385278 0 0 0 1.143599,0.533301 7.2385278,7.2385278 0 0 0 1.218531,0.326595 7.2385278,7.2385278 0 0 0 1.257287,0.110071 7.2385278,7.2385278 0 0 0 1.256771,-0.110071 7.2385278,7.2385278 0 0 0 1.21853,-0.326595 7.2385278,7.2385278 0 0 0 1.1436,-0.533301 7.2385278,7.2385278 0 0 0 1.033529,-0.72347 7.2385278,7.2385278 0 0 0 0.892452,-0.892452 7.2385278,7.2385278 0 0 0 0.72347,-1.033529 7.2385278,7.2385278 0 0 0 0.5333,-1.143599 7.2385278,7.2385278 0 0 0 0.3266,-1.218531 7.2385278,7.2385278 0 0 0 0.11007,-1.257287 7.2385278,7.2385278 0 0 0 -0.0134,-0.436666 7.2385278,7.2385278 0 0 0 -0.0393,-0.435632 7.2385278,7.2385278 0 0 0 -0.0656,-0.432532 7.2385278,7.2385278 0 0 0 -0.092,-0.427364 7.2385278,7.2385278 0 0 0 -0.1173,-0.421163 7.2385278,7.2385278 0 0 0 -0.142629,-0.413412 7.2385278,7.2385278 0 0 0 -0.167432,-0.403592 7.2385278,7.2385278 0 0 0 -0.191203,-0.393258 7.2385278,7.2385278 0 0 0 -0.214974,-0.380855 7.2385278,7.2385278 0 0 0 -0.237711,-0.36742 A 7.2385278,7.2385278 0 0 0 98.822392,52.84432 7.2385278,7.2385278 0 0 0 98.542306,52.508423 7.2385278,7.2385278 0 0 0 98.242582,52.190096 7.2385278,7.2385278 0 0 0 97.924255,51.890373 7.2385278,7.2385278 0 0 0 97.7191,51.719324 42.062138,42.062138 0 0 0 86.133244,55.537695 Z" />
      <circle
         style="fill:#ff0000;fill-rule:evenodd;stroke:#000000;stroke-width:0.522945"
         id="path20419"
         cx="84.466423"
         cy="83.469025"
         r="7.2385278" />
      <circle
         style="fill:#ff0000;fill-rule:evenodd;stroke:#000000;stroke-width:0.522945"
         id="path20419-6"
         cx="120.17721"
         cy="119.58891"
         r="7.2385278" />
      <circle
         style="fill:#008000;fill-rule:evenodd;stroke:#000000;stroke-width:0.34863"
         id="path20419-6-9-6"
         cx="115.47515"
         cy="108.1558"
         r="4.825685" />
      <circle
         style="fill:#008000;fill-rule:evenodd;stroke:#000000;stroke-width:0.34863"
         id="path20419-6-9-0"
         cx="98.542587"
         cy="108.85791"
         r="4.825685" />
      <circle
         style="fill:#008000;fill-rule:evenodd;stroke:#000000;stroke-width:0.34863"
         id="path20419-6-9-62"
         cx="82.062729"
         cy="67.608063"
         r="4.825685" />
      <circle
         style="fill:#008000;fill-rule:evenodd;stroke:#000000;stroke-width:0.34863"
         id="path20419-6-9-61"
         cx="74.546616"
         cy="93.725304"
         r="4.825685" />
      <circle
         style="fill:#008000;fill-rule:evenodd;stroke:#000000;stroke-width:0.34863"
         id="path20419-6-9-8"
         cx="105.05834"
         cy="77.749229"
         r="4.825685" />
      <circle
         style="fill:#ff0000;fill-rule:evenodd;stroke:#000000;stroke-width:0.522945"
         id="path20419-5"
         cx="78.385338"
         cy="109.21764"
         r="7.2385278" />
    </g>
    <g
       aria-label="PIZZERIA"
       id="text30819"
       style="font-size:29.1895px;line-height:1.25;stroke-width:0.729738;fill:#000000"
       transform="matrix(1.2321315,0,0,1.2321315,-20.334358,-15.317054)">
      <path
         d="m 110.60152,42.910234 q 4.08653,0 5.95466,1.605422 1.86813,1.605423 1.86813,4.524373 0,1.72218 -0.78812,3.240035 -0.75892,1.488664 -2.59786,2.422728 -1.80975,0.934064 -4.93303,0.934064 h -2.39354 v 8.114681 h -2.62705 V 42.910234 Z m -0.23351,2.247591 h -2.65625 v 8.23144 h 2.10165 q 2.97733,0 4.4368,-0.963254 1.45948,-0.963254 1.45948,-3.269224 0,-2.014076 -1.28434,-3.006519 -1.28434,-0.992443 -4.05734,-0.992443 z"
         id="path30871"
         style="fill:#000000" />
      <path
         d="m 128.61143,63.751537 h -7.53089 v -1.517854 l 2.45192,-0.5546 V 45.011878 l -2.45192,-0.58379 v -1.517854 h 7.53089 v 1.517854 l -2.45191,0.58379 v 16.667205 l 2.45191,0.5546 z"
         id="path30873"
         style="fill:#000000" />
      <path
         d="M 145.36623,63.751537 H 130.91742 V 61.766651 L 141.89268,45.245394 H 131.2677 v -2.33516 h 13.80663 v 1.984886 l -10.97525,16.521257 h 11.26715 z"
         id="path30875"
         style="fill:#000000" />
      <path
         d="m 162.06263,63.751537 h -14.4488 v -1.984886 l 10.97525,-16.521257 h -10.62497 v -2.33516 h 13.80663 v 1.984886 l -10.97525,16.521257 h 11.26714 z"
         id="path30877"
         style="fill:#000000" />
      <path
         d="M 177.67903,63.751537 H 166.03242 V 42.910234 h 11.64661 v 2.30597 h -9.01955 v 6.509259 h 8.49414 v 2.276781 h -8.49414 v 7.443323 h 9.01955 z"
         id="path30879"
         style="fill:#000000" />
      <path
         d="m 188.01211,42.910234 q 3.8822,0 5.72114,1.488664 1.86813,1.459475 1.86813,4.436804 0,1.663802 -0.61298,2.773003 -0.61298,1.109201 -1.57623,1.78056 -0.93407,0.642169 -1.98489,1.021632 l 5.72114,9.34064 h -3.06489 l -5.04979,-8.610902 h -4.14491 v 8.610902 h -2.62705 V 42.910234 Z m -0.14595,2.276781 h -2.97733 v 7.735218 h 3.12328 q 2.53949,0 3.70707,-0.992444 1.16758,-1.021632 1.16758,-2.977329 0,-2.043265 -1.22596,-2.88976 -1.22596,-0.875685 -3.79464,-0.875685 z"
         id="path30881"
         style="fill:#000000" />
      <path
         d="m 206.28473,63.751537 h -7.53089 v -1.517854 l 2.45192,-0.5546 V 45.011878 l -2.45192,-0.58379 v -1.517854 h 7.53089 v 1.517854 l -2.45192,0.58379 v 16.667205 l 2.45192,0.5546 z"
         id="path30883"
         style="fill:#000000" />
      <path
         d="m 223.3898,63.751537 -2.5103,-6.450879 h -8.26063 l -2.4811,6.450879 h -2.65625 l 8.14387,-20.928872 h 2.36435 l 8.11468,20.928872 z m -5.63357,-15.090972 q -0.0876,-0.233516 -0.2919,-0.846495 -0.20433,-0.61298 -0.40865,-1.255149 -0.17514,-0.671358 -0.2919,-1.021632 -0.20432,0.904874 -0.46703,1.780559 -0.2627,0.846496 -0.43784,1.342717 l -2.36435,6.304933 h 6.59683 z"
         id="path30885"
         style="fill:#000000" />
      <text
         xml:space="preserve"
         style="font-style:normal;font-weight:normal;font-size:8.58945px;line-height:1.25;font-family:sans-serif;fill:#000000;fill-opacity:1;stroke:none;stroke-width:0.156701"
         x="207.52065"
         y="70.720665"
         id="text31069"><tspan
           sodipodi:role="line"
           id="tspan31067"
           style="stroke-width:0.156701" /></text>
    </g>
    <rect
       style="fill:#b3b3b3;fill-rule:evenodd;stroke-width:1"
       id="rect318"
       width="2.374048"
       height="93.631317"
       x="85.568352"
       y="97.018639" />
  </g>
</svg>
